<svg xmlns="http://www.w3.org/2000/svg" width="1120" height="230" viewBox="0 0 1120 230">
  <defs>
    <filter id="glow" x="-70%" y="-70%" width="240%" height="240%">
      <feDropShadow dx="0" dy="2" stdDeviation="3" flood-color="rgba(31,20,4,.7)"/>
      <feDropShadow dx="0" dy="0" stdDeviation="8" flood-color="rgba(255,70,190,.66)"/>
    </filter>
    <g id="tile">
      <rect x="0" y="0" width="470" height="136" rx="8" fill="#05080d" stroke="rgba(202,159,54,.85)" stroke-width="1.4"/>
      <rect x="0" y="0" width="470" height="136" rx="8" fill="rgba(144,37,136,.18)"/>
      <path d="M10 24V10h14M446 10h14v14M460 112v14h-14M24 126H10v-14" fill="none" stroke="rgba(202,159,54,.9)" stroke-width="2"/>
    </g>
  </defs>
  <rect width="1120" height="230" fill="#020305"/>
  <style>
    .label{font:18px Arial,sans-serif;fill:#d8d8d8}
    .icon{fill:none;stroke:rgba(255,174,229,.99);stroke-width:4.2;stroke-linecap:round;stroke-linejoin:round;filter:url(#glow)}
    .filled{fill:rgba(255,174,229,.99);stroke:rgba(255,174,229,.99);stroke-width:1;filter:url(#glow)}
  </style>

  <g transform="translate(55 55)">
    <text class="label" x="0" y="22">R-02 Original</text>
    <use href="#tile" x="130" y="0"/>
    <g class="icon" transform="translate(337 24) scale(1.34)">
      <circle cx="32" cy="32" r="24"/>
      <path d="M20 27c4-4 8-4 12 0"/>
      <path d="M40 26l8-3M42 30h7"/>
      <path d="M21 38h27"/>
      <path d="M21 38c7 12 20 12 27 0"/>
    </g>
  </g>

  <g transform="translate(585 55)">
    <text class="label" x="0" y="22">Actually Connected</text>
    <use href="#tile" x="130" y="0"/>
    <g class="icon" transform="translate(337 24) scale(1.34)">
      <circle cx="32" cy="32" r="24"/>
      <path d="M20 27c4-4 8-4 12 0"/>
      <path class="filled" d="M40 26L48 23L49 30L42 30Z"/>
      <path d="M21 38h27"/>
      <path d="M21 38c7 12 20 12 27 0"/>
    </g>
  </g>
</svg>
