<svg xmlns="http://www.w3.org/2000/svg" width="400" height="400" viewBox="0 0 200 200" role="img" aria-label="Order of Overwhelming Force"><defs><linearGradient id="metal" x1="0" y1="0" x2="1" y2=".85"><stop stop-color="#fff0b4"/><stop offset=".23" stop-color="#ceaa60"/><stop offset=".51" stop-color="#fff0b4"/><stop offset=".58" stop-color="#ceaa60"/><stop offset="1" stop-color="#725125"/></linearGradient><linearGradient id="face" x1="0" y1="0" x2=".8" y2="1"><stop stop-color="#fff0b4"/><stop offset=".3" stop-color="#ceaa60"/><stop offset="1" stop-color="#725125"/></linearGradient><linearGradient id="cloth"><stop stop-color="#381012"/><stop offset=".18" stop-color="#7a3032"/><stop offset=".48" stop-color="#a44843"/><stop offset=".65" stop-color="#7a3032"/><stop offset="1" stop-color="#381012"/></linearGradient><pattern id="ribs" width="3" height="3" patternUnits="userSpaceOnUse"><path d="M0 0V3" stroke="#fff" opacity=".065"/><path d="M1 0V3" stroke="#000" opacity=".14"/></pattern><filter id="shadow" x="-30%" y="-30%" width="160%" height="170%"><feDropShadow dx="0" dy="3" stdDeviation="2" flood-opacity=".4"/></filter><filter id="emboss"><feDropShadow dx=".6" dy=".9" stdDeviation=".2" flood-color="#fff0b4" flood-opacity=".9"/></filter></defs><g filter="url(#shadow)"><path d="M79 62V76Q79 79 83 79H117Q121 79 121 76V62" fill="none" stroke="#725125" stroke-width="6"/><path d="M79 62V76Q79 79 83 79H117Q121 79 121 76V62" fill="none" stroke="url(#metal)" stroke-width="3.5"/><path d="M70 8H130V61Q130 69 124 69H76Q70 69 70 61Z" fill="url(#cloth)" stroke="#381012" stroke-width="1"/><path d="M96 8H104V68H96Z" fill="#e8ddbf" opacity=".92"/><path d="M70 8H130V63Q130 69 124 69H76Q70 69 70 63Z" fill="url(#ribs)"/><path d="M100 78V91" stroke="url(#metal)" stroke-width="6"/><path d="M148 134A48 48 0 1 1 52 134A48 48 0 1 1 148 134Z" fill="url(#metal)" stroke="#725125" stroke-width="1.4"/><path d="M148 134A48 48 0 1 1 52 134A48 48 0 1 1 148 134Z" transform="translate(100 134) scale(.935) translate(-100 -134)" fill="url(#face)" stroke="#fff0b4" stroke-opacity=".75" stroke-width="1.1"/><g fill="#342813" stroke="#fff0b4" stroke-opacity=".55" stroke-width=".7" stroke-linejoin="round" filter="url(#emboss)"><path d="M103 99L77 139H98L92 166L123 124H103L112 99Z"/></g></g></svg>