<svg xmlns="http://www.w3.org/2000/svg" xmlns:xlink="http://www.w3.org/1999/xlink" width="1100" height="650" viewBox="0 0 1100 650">
  <defs>
    <filter id="jGlow" x="-80%" y="-80%" width="260%" height="260%">
      <feDropShadow dx="0" dy="2" stdDeviation="3.5" flood-color="#1f1404" flood-opacity=".70"/>
      <feDropShadow dx="0" dy="0" stdDeviation="6" flood-color="#efbd58" flood-opacity=".70"/>
    </filter>
    <linearGradient id="panel" x2="0" y2="1"><stop stop-color="#101723"/><stop offset="1" stop-color="#070b12"/></linearGradient>
    <g id="j01" fill="none" stroke="currentColor" stroke-width="4.6" stroke-linecap="round" stroke-linejoin="round"><path d="M25 24h14v23H25zM22 47h20"/><path d="M22 52l-9-5 6 10M42 52l9-5-6 10M18 47l-9-2M46 47l9-2" stroke-width="3.6"/><path d="M23 17V9M32 17V5M41 17V9" stroke-width="4"/></g>
    <g id="j02" fill="none" stroke="currentColor" stroke-width="5.3" stroke-linecap="round" stroke-linejoin="round"><path d="M23 22h18v25H23zM20 47h24"/><path d="M20 52l-10-5 7 11M44 52l10-5-7 11" stroke-width="4"/><path d="M22 16l-2-7M32 16V5M42 16l2-7" stroke-width="4"/></g>
    <g id="j03" fill="none" stroke="currentColor" stroke-width="4.5" stroke-linecap="round" stroke-linejoin="round"><path d="M27 20h10l4 27H23zM21 47h22"/><path d="M21 52l-10-5 7 10M43 52l10-5-7 10" stroke-width="3.8"/><path d="M24 15l-3-7M32 14V4M40 15l3-7" stroke-width="3.8"/></g>
    <g id="j04" fill="none" stroke="currentColor" stroke-width="4.4" stroke-linecap="round" stroke-linejoin="round"><path d="M24 20h16v27H24zM28 28h8M28 35h8M21 47h22"/><path d="M20 52l-9-5 6 10M44 52l9-5-6 10" stroke-width="3.7"/><path d="M22 15l-3-7M32 15V4M42 15l3-7" stroke-width="3.8"/></g>
    <g id="j05" fill="none" stroke="currentColor" stroke-width="4.8" stroke-linecap="round" stroke-linejoin="round"><path d="M27 19h10l5 8-4 20H26l-4-20zM22 47h20"/><path d="M20 52l-9-5 6 10M44 52l9-5-6 10" stroke-width="3.7"/><path d="M22 15l-5-6M32 14V4M42 15l5-6" stroke-width="3.8"/></g>
    <g id="j06" fill="none" stroke="currentColor" stroke-width="4.5" stroke-linecap="round" stroke-linejoin="round"><path d="M25 22h14v25H25zM22 47h20"/><path d="M22 51L7 44M19 56L6 53M42 51l15-7M45 56l13-3" stroke-width="3.6"/><path d="M21 16l-4-7M29 15l-1-9M37 15l1-9M45 16l4-7" stroke-width="3.7"/></g>
    <g id="j07" fill="none" stroke="currentColor" stroke-width="4.8" stroke-linecap="round" stroke-linejoin="round"><path d="M24 22h16v25H24zM22 47h20"/><path d="M24 30h16M20 52l-10-5 7 11M44 52l10-5-7 11" stroke-width="3.8"/><path d="M22 16l-3-7M32 16V5M42 16l3-7" stroke-width="3.9"/></g>
    <g id="j08" fill="none" stroke="currentColor" stroke-width="4.5" stroke-linecap="round" stroke-linejoin="round"><path d="M28 15h8v32h-8zM23 47h18"/><path d="M22 52l-10-5 6 10M42 52l10-5-6 10" stroke-width="3.6"/><path d="M25 13l-4-6M32 11V3M39 13l4-6" stroke-width="3.7"/></g>
    <g id="j09" fill="none" stroke="currentColor" stroke-width="4.8" stroke-linecap="round" stroke-linejoin="round"><path d="M24 22h16v25H24zM21 47h22"/><path d="M20 52l-12-6M18 57L7 55M44 52l12-6M46 57l11-2M26 55l-2 6M32 55v7M38 55l2 6" stroke-width="3.7"/><path d="M21 16l-3-7M28 15l-1-9M36 15l1-9M43 16l3-7" stroke-width="3.7"/></g>
    <g id="j10" fill="none" stroke="currentColor" stroke-width="4.6" stroke-linecap="round" stroke-linejoin="round"><path d="M24 20h16v27H24zM28 27h8M28 38h8M21 47h22"/><path d="M20 52l-10-5 7 11M44 52l10-5-7 11" stroke-width="3.8"/><path d="M22 15l-3-7M32 15V4M42 15l3-7" stroke-width="3.8"/></g>
  </defs>
  <rect width="1100" height="650" fill="#03070d"/>
  <text x="28" y="34" fill="#e7c76c" font-family="Cinzel,Georgia,serif" font-size="23" font-weight="700">JAKOB ELTZHOLTZ — CRUSHING MOMENTUM</text>
  <text x="28" y="56" fill="#8491a8" font-family="Georgia,serif" font-size="13">Actual board-card tint, 104px mask cap, hold-frame opacity and gold glow.</text>
  <g font-family="Cinzel,Georgia,serif" font-size="14" font-weight="700" text-anchor="middle" fill="#e7c76c">
    <g transform="translate(18 72)"><rect width="196" height="270" rx="8" fill="url(#panel)" stroke="#846b2d"/><image href="../bh17.png" x="20" y="12" width="156" height="218" preserveAspectRatio="xMidYMid meet"/><rect x="20" y="12" width="156" height="218" rx="3" fill="#97621c" opacity=".18"/><use href="#j01" x="46" y="69" width="104" height="104" color="#fff0bd" filter="url(#jGlow)"/><text x="98" y="254">J-01 · CURRENT</text></g>
    <g transform="translate(234 72)"><rect width="196" height="270" rx="8" fill="url(#panel)" stroke="#846b2d"/><image href="../bh17.png" x="20" y="12" width="156" height="218"/><rect x="20" y="12" width="156" height="218" fill="#97621c" opacity=".18"/><use href="#j02" x="46" y="69" width="104" height="104" color="#fff0bd" filter="url(#jGlow)"/><text x="98" y="254">J-02</text></g>
    <g transform="translate(450 72)"><rect width="196" height="270" rx="8" fill="url(#panel)" stroke="#846b2d"/><image href="../bh17.png" x="20" y="12" width="156" height="218"/><rect x="20" y="12" width="156" height="218" fill="#97621c" opacity=".18"/><use href="#j03" x="46" y="69" width="104" height="104" color="#fff0bd" filter="url(#jGlow)"/><text x="98" y="254">J-03</text></g>
    <g transform="translate(666 72)"><rect width="196" height="270" rx="8" fill="url(#panel)" stroke="#846b2d"/><image href="../bh17.png" x="20" y="12" width="156" height="218"/><rect x="20" y="12" width="156" height="218" fill="#97621c" opacity=".18"/><use href="#j04" x="46" y="69" width="104" height="104" color="#fff0bd" filter="url(#jGlow)"/><text x="98" y="254">J-04</text></g>
    <g transform="translate(882 72)"><rect width="196" height="270" rx="8" fill="url(#panel)" stroke="#846b2d"/><image href="../bh17.png" x="20" y="12" width="156" height="218"/><rect x="20" y="12" width="156" height="218" fill="#97621c" opacity=".18"/><use href="#j05" x="46" y="69" width="104" height="104" color="#fff0bd" filter="url(#jGlow)"/><text x="98" y="254">J-05</text></g>
    <g transform="translate(18 362)"><rect width="196" height="270" rx="8" fill="url(#panel)" stroke="#846b2d"/><image href="../bh17.png" x="20" y="12" width="156" height="218"/><rect x="20" y="12" width="156" height="218" fill="#97621c" opacity=".18"/><use href="#j06" x="46" y="69" width="104" height="104" color="#fff0bd" filter="url(#jGlow)"/><text x="98" y="254">J-06</text></g>
    <g transform="translate(234 362)"><rect width="196" height="270" rx="8" fill="url(#panel)" stroke="#846b2d"/><image href="../bh17.png" x="20" y="12" width="156" height="218"/><rect x="20" y="12" width="156" height="218" fill="#97621c" opacity=".18"/><use href="#j07" x="46" y="69" width="104" height="104" color="#fff0bd" filter="url(#jGlow)"/><text x="98" y="254">J-07</text></g>
    <g transform="translate(450 362)"><rect width="196" height="270" rx="8" fill="url(#panel)" stroke="#846b2d"/><image href="../bh17.png" x="20" y="12" width="156" height="218"/><rect x="20" y="12" width="156" height="218" fill="#97621c" opacity=".18"/><use href="#j08" x="46" y="69" width="104" height="104" color="#fff0bd" filter="url(#jGlow)"/><text x="98" y="254">J-08</text></g>
    <g transform="translate(666 362)"><rect width="196" height="270" rx="8" fill="url(#panel)" stroke="#846b2d"/><image href="../bh17.png" x="20" y="12" width="156" height="218"/><rect x="20" y="12" width="156" height="218" fill="#97621c" opacity=".18"/><use href="#j09" x="46" y="69" width="104" height="104" color="#fff0bd" filter="url(#jGlow)"/><text x="98" y="254">J-09</text></g>
    <g transform="translate(882 362)"><rect width="196" height="270" rx="8" fill="url(#panel)" stroke="#846b2d"/><image href="../bh17.png" x="20" y="12" width="156" height="218"/><rect x="20" y="12" width="156" height="218" fill="#97621c" opacity=".18"/><use href="#j10" x="46" y="69" width="104" height="104" color="#fff0bd" filter="url(#jGlow)"/><text x="98" y="254">J-10</text></g>
  </g>
</svg>
