<svg xmlns="http://www.w3.org/2000/svg" width="700" height="470" viewBox="0 0 700 470"><defs><filter id="g" x="-80%" y="-80%" width="260%" height="260%"><feDropShadow dx="0" dy="3" stdDeviation="6" flood-color="#102005" flood-opacity=".85"/><feDropShadow dx="0" dy="0" stdDeviation="11" flood-color="#91df55" flood-opacity=".78"/></filter></defs>
<rect width="700" height="470" fill="#03070d"/><text x="350" y="38" text-anchor="middle" fill="#d7ef8b" font-family="Cinzel,Georgia,serif" font-size="24" font-weight="700">V4-B6 — SIMPLIFIED</text><text x="350" y="64" text-anchor="middle" fill="#8e9bac" font-family="Georgia,serif" font-size="14">Thinner strokes, cleaner diamond spacing, exact centered scale</text>
<rect x="219" y="82" width="262" height="367" rx="10" fill="#0b111a" stroke="#66852e"/><image href="../83.png" x="220" y="83" width="260" height="364" opacity=".38"/><rect x="220" y="83" width="260" height="364" fill="#41871f" opacity=".18"/>
<g transform="translate(263.5 178.5) scale(2.7083)" fill="none" stroke="#e0ffbd" stroke-linecap="round" stroke-linejoin="round" filter="url(#g)"><circle cx="32" cy="32" r="27" stroke-width="2.7"/><path d="M7 23l25 22 25-22M32 45v13" stroke-width="2.8"/><path d="M32 13l6 6-6 6-6-6zM19 19l6-5 7 5-7 5zM45 19l-6-5-7 5 7 5z" stroke-width="2.35"/></g></svg>
